<svg xmlns="http://www.w3.org/2000/svg" viewBox="0 0 548.22 486.8"><path d="M589,534.4" transform="translate(-40.82 -47.6)" fill="none" stroke="#ed1c24" stroke-miterlimit="10" stroke-width="3"/><path d="M346.48,47.6" transform="translate(-40.82 -47.6)" fill="none" stroke="#ed1c24" stroke-miterlimit="10" stroke-width="3"/><polygon points="385.02 157.84 226.31 157.84 305.67 0 385.02 157.84" fill="#365d96"/><polygon points="469.98 328.8 141.98 329.6 225.86 161.16 386.37 161.16 469.98 328.8" fill="#24356f"/><polygon points="548.22 486.8 63.62 486.8 139.58 333.62 471.58 332.8 548.22 486.8" fill="#07314d"/><text transform="translate(263.3 152.99)" font-size="16" fill="#fff" font-family="SourceSansPro-SemiBoldItalic, Source Sans Pro" font-weight="600" font-style="italic">P<tspan x="9.07" y="0" letter-spacing="-0.01em">r</tspan><tspan x="14.72" y="0">oject </tspan><tspan x="50.62" y="0" letter-spacing="-0.02em">Le</tspan><tspan x="65.61" y="0" letter-spacing="-0.01em">v</tspan><tspan x="73.1" y="0">el</tspan></text><text transform="translate(272.92 324.68)" font-size="16" fill="#fff" font-family="SourceSansPro-SemiBoldItalic, Source Sans Pro" font-weight="600" font-style="italic">Unit <tspan x="31.38" y="0" letter-spacing="-0.02em">Le</tspan><tspan x="46.37" y="0" letter-spacing="-0.01em">v</tspan><tspan x="53.86" y="0">el</tspan></text><text transform="translate(275.13 481.92)" font-size="16" fill="#fff" font-family="SourceSansPro-SemiBoldItalic, Source Sans Pro" font-weight="600" font-style="italic">File <tspan x="26.96" y="0" letter-spacing="-0.02em">Le</tspan><tspan x="41.95" y="0" letter-spacing="-0.01em">v</tspan><tspan x="49.44" y="0">el</tspan></text><text transform="translate(160.13 51.78)" font-size="16" fill="#231f20" font-family="SourceSansPro-SemiBold, Source Sans Pro" font-weight="600">G<tspan x="10.05" y="0" letter-spacing="-0.03em">r</tspan><tspan x="15.6" y="0">aphicP</tspan><tspan x="62.7" y="0" letter-spacing="-0.01em">r</tspan><tspan x="68.51" y="0">oje</tspan><tspan x="89.61" y="0" letter-spacing="-0.01em">c</tspan><tspan x="96.85" y="0" letter-spacing="0em">t</tspan><tspan x="39.25" y="19.2" letter-spacing="-0.04em">P</tspan><tspan x="47.95" y="19.2">ac</tspan><tspan x="63.6" y="19.2" letter-spacing="-0.01em">k</tspan><tspan x="71.79" y="19.2">a</tspan><tspan x="80.05" y="19.2" letter-spacing="-0.02em">g</tspan><tspan x="88.11" y="19.2" xml:space="preserve" letter-spacing="0em">e  </tspan><tspan x="25.07" y="38.4" xml:space="preserve">Playbook    </tspan><tspan x="-7.7" y="57.6">VideoP</tspan><tspan x="40.3" y="57.6" letter-spacing="-0.01em">r</tspan><tspan x="46.11" y="57.6" letter-spacing="0em">oje</tspan><tspan x="67.21" y="57.6" letter-spacing="-0.01em">c</tspan><tspan x="74.45" y="57.6" xml:space="preserve">t       </tspan></text><text transform="translate(0.78 384.03)" font-size="16" fill="#231f20" font-family="SourceSansPro-SemiBold, Source Sans Pro" font-weight="600">DocumentFile<tspan x="22.58" y="19.2">Ima</tspan><tspan x="48.83" y="19.2" letter-spacing="-0.02em">g</tspan><tspan x="56.9" y="19.2" xml:space="preserve" letter-spacing="0em">eFile  </tspan><tspan x="-0.78" y="38.4" xml:space="preserve">SupportFile     </tspan><tspan x="3.92" y="57.6" xml:space="preserve">VideoFile         </tspan></text><text transform="translate(83.67 232.66)" font-size="16" fill="#231f20" font-family="SourceSansPro-SemiBold, Source Sans Pro" font-weight="600">Document - ?<tspan x="12.37" y="19.2" xml:space="preserve">VideoUnit   </tspan></text><text transform="translate(168.1 407.41)" font-size="16" fill="#fff" font-family="SourceSansPro-Regular, Source Sans Pro">Mo<tspan x="20.3" y="0" letter-spacing="-0.02em">s</tspan><tspan x="26.69" y="0">t </tspan><tspan x="35.3" y="0" letter-spacing="-0.01em">at</tspan><tspan x="48.32" y="0">omic elemen</tspan><tspan x="134.59" y="0" letter-spacing="0.01em">t</tspan><tspan x="140.11" y="0">, do n</tspan><tspan x="176.8" y="0" letter-spacing="-0.02em">o</tspan><tspan x="185.2" y="0">t </tspan><tspan x="193.81" y="0" letter-spacing="-0.02em">s</tspan><tspan x="200.19" y="0" letter-spacing="-0.02em">t</tspan><tspan x="205.26" y="0" letter-spacing="0em">and alone. </tspan></text><text transform="translate(215.52 227.47)" font-size="16" fill="#fff" font-family="SourceSansPro-Regular, Source Sans Pro">In<tspan x="12.96" y="0" letter-spacing="-0.01em">t</tspan><tspan x="18.14" y="0">ermedi</tspan><tspan x="65.65" y="0" letter-spacing="-0.01em">at</tspan><tspan x="78.67" y="0">e</tspan><tspan x="86.61" y="0" letter-spacing="0.14em"> </tspan><tspan x="92.04" y="0" letter-spacing="0em">w</tspan><tspan x="103.53" y="0" letter-spacing="-0.02em">r</tspan><tspan x="108.7" y="0" letter-spacing="0em">apper</tspan><tspan x="148.01" y="0" letter-spacing="0.14em"> </tspan><tspan x="153.44" y="0">th</tspan><tspan x="167.55" y="0" letter-spacing="-0.01em">a</tspan><tspan x="175.39" y="0">t </tspan><tspan x="0" y="19.2">adds</tspan><tspan x="32.53" y="19.2" letter-spacing="0.16em"> </tspan><tspan x="38.32" y="19.2">additional</tspan><tspan x="106.99" y="19.2" letter-spacing="0.16em"> </tspan><tspan x="112.78" y="19.2" letter-spacing="0em">m</tspan><tspan x="126.05" y="19.2" letter-spacing="-0.01em">e</tspan><tspan x="133.82" y="19.2" letter-spacing="-0.02em">t</tspan><tspan x="138.9" y="19.2">ad</tspan><tspan x="155.84" y="19.2" letter-spacing="-0.01em">a</tspan><tspan x="163.68" y="19.2" letter-spacing="-0.02em">t</tspan><tspan x="168.75" y="19.2">a. </tspan><tspan x="34.9" y="38.4">Can </tspan><tspan x="64.06" y="38.4" letter-spacing="-0.02em">s</tspan><tspan x="70.44" y="38.4" letter-spacing="-0.02em">t</tspan><tspan x="75.51" y="38.4">and alone.</tspan></text><text transform="translate(271.54 82.08)" font-size="16" fill="#fff" font-family="SourceSansPro-Regular, Source Sans Pro">Colle<tspan x="33.9" y="0" letter-spacing="-0.01em">c</tspan><tspan x="41.04" y="0">tion</tspan><tspan x="8.96" y="19.2">of uni</tspan><tspan x="46.9" y="19.2" letter-spacing="-0.01em">t</tspan><tspan x="52.14" y="19.2">s </tspan><tspan x="-5.86" y="38.4">and</tspan><tspan x="19.83" y="38.4" letter-spacing="-0.03em">/</tspan><tspan x="24.94" y="38.4">or files.</tspan></text><path d="M325.2,88.4" transform="translate(-40.82 -47.6)" fill="none" stroke="#ed1c24" stroke-miterlimit="10" stroke-width="3"/><path d="M104.44,534.4" transform="translate(-40.82 -47.6)" fill="none" stroke="#ed1c24" stroke-miterlimit="10" stroke-width="3"/></svg>