<svg xmlns="http://www.w3.org/2000/svg" viewBox="0 0 445.28 99.25"><text transform="translate(0 96.27)" font-size="11" font-family="OpenSans, Open Sans">playbook/2021/07/commons.america.gov_ckql3t8v014gv0760gev4q7ba/i/internal.docx</text><line x1="1.28" y1="80.82" x2="445.28" y2="80.82" stroke="#2499c2" stroke-miterlimit="10" stroke-width="8"/><line x1="213.28" y1="80.82" x2="366.28" y2="80.82" fill="none" stroke="#d01319" stroke-miterlimit="10" stroke-width="8"/><line x1="366.28" y1="80.82" x2="375.28" y2="80.82" fill="none" stroke="#face00" stroke-miterlimit="10" stroke-width="8"/><line x1="92.28" y1="80.82" x2="213.28" y2="80.82" fill="none" stroke="#8168b3" stroke-miterlimit="10" stroke-width="8"/><line x1="47.28" y1="80.82" x2="97.28" y2="80.82" fill="none" stroke="#94bfa2" stroke-miterlimit="10" stroke-width="8"/><line x1="1.28" y1="80.82" x2="52.28" y2="80.82" fill="none" stroke="#002d74" stroke-miterlimit="10" stroke-width="8"/><line x1="392.95" y1="47.05" x2="429.78" y2="18.32" fill="none" stroke="#2499c2" stroke-miterlimit="10" stroke-width="3"/><line x1="390.66" y1="54.05" x2="428.78" y2="81.32" fill="none" stroke="#2499c2" stroke-miterlimit="10" stroke-width="3"/><rect x="375.28" y="38.82" width="68" height="22" fill="#2499c2"/><text transform="translate(385.21 53.92)" font-size="11" fill="#fff" font-family="OpenSans-Bold, Open Sans" font-weight="700">Filename</text><line x1="342.95" y1="46.05" x2="378.78" y2="20.32" fill="none" stroke="#face00" stroke-miterlimit="10" stroke-width="3"/><line x1="340.66" y1="53.05" x2="373.78" y2="80.32" fill="none" stroke="#face00" stroke-miterlimit="10" stroke-width="3"/><rect x="309.28" y="38.82" width="66" height="22" fill="#face00"/><text transform="translate(319 53.92)" font-size="11" fill="#002d74" font-family="OpenSans-Bold, Open Sans" font-weight="700">Visibility</text><line x1="278.96" y1="46.81" x2="309.78" y2="18.32" fill="none" stroke="#d01319" stroke-miterlimit="10" stroke-width="3"/><line x1="276.67" y1="53.81" x2="309.78" y2="81.32" fill="none" stroke="#d01319" stroke-miterlimit="10" stroke-width="3"/><rect x="246.28" y="38.82" width="63" height="22" fill="#d01319"/><text transform="translate(252.3 53.92)" font-size="11" fill="#fff" font-family="OpenSans-Bold, Open Sans" font-weight="700">Project ID</text><line x1="221.78" y1="47.32" x2="153.78" y2="18.32" fill="none" stroke="#8168b3" stroke-miterlimit="10" stroke-width="3"/><line x1="218.78" y1="54.32" x2="157.78" y2="81.32" fill="none" stroke="#8168b3" stroke-miterlimit="10" stroke-width="3"/><rect x="153.28" y="38.82" width="94.5" height="22" fill="#8168b3"/><text transform="translate(175.39 53.92)" font-size="11" fill="#fff" font-family="OpenSans-Bold, Open Sans" font-weight="700">Origin Site</text><line x1="139.78" y1="43.32" x2="72.78" y2="18.32" fill="none" stroke="#94bfa2" stroke-miterlimit="10" stroke-width="3"/><line x1="138.78" y1="54.32" x2="76.78" y2="81.32" fill="none" stroke="#94bfa2" stroke-miterlimit="10" stroke-width="3"/><rect x="104.28" y="38.82" width="49" height="22" fill="#94bfa2"/><text transform="translate(116.39 53.92)" font-size="11" fill="#002d74" font-family="OpenSans-Bold, Open Sans" font-weight="700">Date</text><line x1="72.78" y1="47.32" x2="27.94" y2="20.82" fill="none" stroke="#002d74" stroke-miterlimit="10" stroke-width="3"/><line x1="68.78" y1="55.32" x2="22.78" y2="80.32" fill="none" stroke="#002d74" stroke-miterlimit="10" stroke-width="3"/><rect x="5.28" y="38.82" width="99" height="22" fill="#002d74"/><text transform="translate(17.31 53.92)" font-size="11" fill="#fff" font-family="OpenSans-Bold, Open Sans" font-weight="700">Content Type</text><text transform="translate(4.95 9.43)" font-size="11" font-family="OpenSans, Open Sans">playbook/2021/07/commons.america.gov_ckql3t8v014gv0760gev4q7ba/p/public.png</text><line x1="5.28" y1="17.82" x2="443.28" y2="17.82" stroke="#2499c2" stroke-miterlimit="10" stroke-width="8"/><line x1="218.28" y1="17.82" x2="373.28" y2="17.82" fill="none" stroke="#d01319" stroke-miterlimit="10" stroke-width="8"/><line x1="373.28" y1="17.82" x2="383.28" y2="17.82" fill="none" stroke="#face00" stroke-miterlimit="10" stroke-width="8"/><line x1="97.28" y1="17.82" x2="218.28" y2="17.82" fill="none" stroke="#8168b3" stroke-miterlimit="10" stroke-width="8"/><line x1="52.28" y1="17.82" x2="101.28" y2="17.82" fill="none" stroke="#94bfa2" stroke-miterlimit="10" stroke-width="8"/><line x1="5.28" y1="17.82" x2="52.28" y2="17.82" fill="none" stroke="#002d74" stroke-miterlimit="10" stroke-width="8"/></svg>