<svg xmlns="http://www.w3.org/2000/svg" viewBox="0 0 1326 640"><rect x="1057" width="269" height="145" rx="10" fill="#002d74"/><text transform="translate(1103.94 68.36)" font-size="22" fill="#fff" font-family="OpenSans-Bold, Open Sans" font-weight="700">Courses Module<tspan x="-9.46" y="25">JS file stored in S3</tspan></text><line x1="663" y1="145" x2="662.5" y2="548.5" fill="none" stroke="#212121" stroke-miterlimit="10" stroke-width="7"/><line x1="663.5" y1="456.5" x2="1195.5" y2="456.5" fill="none" stroke="#212121" stroke-miterlimit="10" stroke-width="7"/><line x1="1190.5" y1="144" x2="1192.5" y2="459.5" fill="none" stroke="#212121" stroke-miterlimit="10" stroke-width="7"/><rect x="727" y="438" width="393" height="34" fill="#fff"/><text transform="translate(735.44 464.29)" font-size="20" font-family="OpenSans-Bold, Open Sans" font-weight="700">Load frontend JavaScript &amp; CSS bundle</text><circle cx="662.5" cy="456.5" r="15.5" fill="#a6e5f3"/><line x1="663.5" y1="396.5" x2="131.5" y2="397.5" fill="none" stroke="#212121" stroke-miterlimit="10" stroke-width="7"/><line x1="132.5" y1="144.5" x2="134.5" y2="400.5" fill="none" stroke="#212121" stroke-miterlimit="10" stroke-width="7"/><rect x="420" y="378" width="166" height="37" fill="#fff"/><text transform="translate(424.24 404.29)" font-size="20" font-family="OpenSans-Bold, Open Sans" font-weight="700">Get course data</text><circle cx="663.5" cy="396.5" r="15.5" fill="#a6e5f3"/><text transform="translate(689.32 345.29)" font-size="20" font-family="OpenSans-Bold, Open Sans" font-weight="700">Register course shortcode</text><circle cx="662.5" cy="340.5" r="15.5" fill="#a6e5f3"/><rect x="550" y="190" width="227" height="114" rx="10" fill="#a6e5f3"/><text transform="translate(564.34 242.1) scale(1.07 1)" font-size="20" fill="#212121" font-family="OpenSans-Bold, Open Sans" font-weight="700">America API Client <tspan x="61.21" y="25">Plugin</tspan></text><rect x="549" y="526" width="227" height="114" rx="10" fill="#d01319"/><text transform="translate(585.74 578.1) scale(1.07 1)" font-size="20" fill="#fff" font-family="OpenSans-Bold, Open Sans" font-weight="700">Site Page With<tspan x="-18.19" y="25">Embedded Course</tspan></text><rect x="528.5" width="269" height="145" rx="10" fill="#d01319"/><text transform="translate(593.58 80.86)" font-size="22" fill="#fff" font-family="OpenSans-Bold, Open Sans" font-weight="700">Host WP Site</text><rect width="269" height="145" rx="10" fill="#345d96"/><text transform="translate(47.07 68.36)" font-size="22" fill="#fff" font-family="OpenSans-Bold, Open Sans" font-weight="700">Courses WP Site<tspan x="-24.85" y="25">courses.america.gov</tspan></text></svg>